<?xml version="1.0" standalone="no"?>
<!DOCTYPE svg PUBLIC "-//W3C//DTD SVG 20010904//EN"
 "http://www.w3.org/TR/2001/REC-SVG-20010904/DTD/svg10.dtd">
<svg version="1.0" xmlns="http://www.w3.org/2000/svg"
 width="221.000000pt" height="221.000000pt" viewBox="0 0 221.000000 221.000000"
 preserveAspectRatio="xMidYMid meet">
<metadata>
Created by potrace 1.14, written by Peter Selinger 2001-2017
</metadata>
<g transform="translate(0.000000,221.000000) scale(0.100000,-0.100000)"
fill="#000000" stroke="none">
<path d="M99 1488 c0 -13 -2 -30 -3 -38 -2 -8 -6 -41 -10 -72 -3 -32 -9 -84
-12 -115 -4 -32 -8 -65 -10 -73 -1 -8 -3 -25 -3 -38 -1 -14 -10 -26 -23 -31
-18 -7 -12 -9 30 -12 30 -2 56 -1 59 4 2 4 -3 7 -11 7 -14 0 -19 9 -18 30 0 3
3 48 7 100 4 52 8 105 8 118 1 12 2 22 4 22 1 0 32 -61 69 -135 37 -75 71
-138 76 -141 4 -3 24 27 42 68 19 40 50 107 70 148 34 72 36 74 37 40 3 -43 3
-47 14 -135 4 -38 7 -82 6 -97 -2 -28 -2 -28 56 -29 176 -2 212 -1 222 5 6 4
11 19 10 34 0 26 -1 26 -9 5 -8 -20 -17 -23 -59 -23 -58 0 -63 8 -58 94 2 45
4 50 27 52 14 1 37 -4 53 -11 26 -13 27 -13 27 16 0 25 -3 28 -22 21 -13 -4
-36 -7 -53 -7 -30 1 -30 1 -32 63 l-3 62 50 0 c38 0 50 -4 50 -15 0 -8 4 -15
9 -15 4 0 8 12 7 27 -1 26 -1 26 -76 26 -41 -1 -86 -2 -100 -3 -24 -1 -24 -1
-3 -10 21 -9 21 -13 20 -157 -2 -142 -3 -148 -23 -151 -30 -4 -44 18 -50 79
-3 30 -7 68 -9 84 -2 17 -7 64 -11 105 -4 41 -10 86 -14 100 -8 26 -7 28 -139
-253 l-27 -59 -82 166 c-45 91 -84 166 -87 166 -3 0 -5 -10 -6 -22z"/>
<path d="M737 1438 c-8 -5 -6 -8 6 -8 15 0 17 -14 17 -150 0 -124 -3 -152 -15
-156 -33 -13 -2 -19 97 -18 133 1 174 19 213 94 24 47 22 121 -5 165 -33 54
-93 77 -206 79 -52 1 -100 -2 -107 -6z m206 -33 c99 -47 111 -203 21 -262 -26
-17 -136 -24 -150 -10 -4 3 -7 62 -7 129 1 184 -5 166 53 162 28 -2 65 -10 83
-19z"/>
<path d="M1073 1438 c-2 -5 2 -8 10 -8 20 0 23 -25 21 -165 -2 -152 -1 -143
-21 -148 -17 -4 46 -8 140 -9 45 -1 46 1 53 38 l5 29 -16 -23 c-14 -19 -24
-23 -63 -20 l-47 3 0 70 0 70 40 -1 c21 -1 41 -7 43 -13 7 -20 18 -12 18 14 0
23 -3 24 -50 22 l-51 -2 -3 63 -3 62 45 0 c32 0 48 -5 55 -17 9 -15 10 -13 11
12 l0 30 -91 0 c-50 0 -93 -3 -96 -7z"/>
<path d="M1290 1439 c0 -4 6 -9 13 -12 20 -8 21 -282 1 -302 -19 -19 -8 -22
51 -14 28 3 43 7 34 7 -26 3 -29 23 -29 173 0 123 2 139 17 139 9 0 13 3 10 7
-9 9 -97 11 -97 2z"/>
<path d="M1419 1430 c16 -13 18 -30 16 -159 -1 -102 -5 -146 -13 -149 -28 -9
-8 -17 40 -15 67 2 67 2 41 13 -20 8 -23 16 -23 70 l0 60 30 0 c25 0 38 -10
77 -61 53 -67 83 -87 128 -81 l30 4 -31 13 c-18 7 -55 41 -83 75 l-52 62 20
22 c44 47 45 105 0 138 -19 15 -45 19 -112 21 -79 2 -85 1 -68 -13z m154 -32
c20 -24 22 -85 3 -110 -9 -12 -27 -18 -55 -18 l-41 0 0 73 c0 41 3 76 6 79 11
12 70 -4 87 -24z"/>
<path d="M1785 1440 c-66 -20 -119 -99 -116 -174 3 -96 85 -166 187 -162 177
8 242 237 91 322 -40 22 -113 28 -162 14z m118 -22 c54 -28 77 -77 77 -162 0
-98 -91 -160 -175 -120 -51 24 -76 65 -82 133 -6 68 12 117 55 143 31 20 94
23 125 6z"/>
<path d="M2073 1438 c-39 -19 -53 -87 -26 -123 5 -5 33 -31 64 -57 64 -54 75
-78 50 -110 -33 -40 -109 -28 -128 20 -10 26 -11 26 -10 -11 0 -43 5 -48 55
-53 77 -8 132 30 132 91 0 40 -20 67 -84 115 -29 21 -56 48 -59 59 -8 31 19
61 56 61 37 0 49 -7 66 -35 10 -18 11 -16 9 15 -3 35 -3 35 -53 37 -27 1 -60
-3 -72 -9z"/>
<path d="M3 1035 c5 -14 2207 -19 2207 -5 0 5 -3 11 -7 11 -5 1 -502 2 -1106
3 -746 1 -1096 -2 -1094 -9z"/>
<path d="M91 848 c-24 -62 -51 -120 -61 -129 -16 -14 -15 -15 15 -16 26 -1 32
3 28 16 -2 9 2 30 9 46 11 26 19 30 52 31 37 2 40 0 59 -46 l20 -48 107 -1
c89 0 112 3 139 20 58 35 77 117 41 177 -26 43 -58 54 -157 57 -80 1 -81 1
-68 -19 8 -14 11 -52 10 -111 -4 -120 -3 -115 -20 -115 -17 0 -37 38 -86 162
-19 49 -37 88 -40 88 -3 0 -25 -51 -48 -112z m328 79 c55 -28 81 -111 52 -165
-14 -26 -69 -51 -100 -46 -51 9 -51 8 -51 119 l0 105 38 0 c20 0 48 -6 61 -13z
m-256 -101 c1 -5 -13 -11 -30 -13 -38 -3 -38 -5 -17 48 l17 41 14 -34 c8 -18
15 -37 16 -42z"/>
<path d="M510 948 c0 -4 4 -8 9 -8 5 0 23 -33 39 -72 17 -40 40 -95 52 -123
l22 -50 16 30 c8 17 33 70 55 120 21 49 44 93 50 97 13 9 13 9 -25 12 -19 2
-25 -1 -21 -11 7 -18 -58 -187 -67 -176 -15 17 -71 173 -66 181 3 6 -9 10 -29
9 -19 -1 -35 -5 -35 -9z"/>
<path d="M818 949 c-32 -12 -64 -61 -73 -107 -7 -42 23 -101 63 -124 74 -44
184 -2 199 76 l6 29 20 -43 c24 -51 77 -79 148 -80 59 0 79 15 76 60 -2 19 1
43 5 53 8 15 4 17 -29 16 -21 0 -32 -3 -25 -6 7 -3 12 -24 12 -54 l0 -49 -35
0 c-48 0 -91 24 -110 60 -26 51 -15 129 22 148 46 25 143 16 143 -13 0 -25 15
-17 18 9 2 29 -16 35 -96 33 -67 -2 -104 -22 -123 -67 -17 -37 -22 -37 -36 -1
-6 16 -23 37 -37 46 -32 21 -110 29 -148 14z m97 -13 c108 -46 74 -232 -40
-218 -72 9 -112 85 -86 165 12 34 35 51 89 66 1 1 18 -5 37 -13z"/>
<path d="M1377 953 c-3 -4 -21 -51 -41 -103 -20 -52 -45 -106 -55 -120 l-18
-25 34 -1 c20 0 30 3 24 9 -9 9 1 63 14 75 3 3 21 7 40 8 38 3 57 -16 70 -67
6 -25 8 -26 108 -27 75 -2 112 2 138 14 39 17 69 58 69 96 1 18 4 14 14 -15
17 -46 32 -64 67 -83 60 -31 147 -8 184 50 22 33 21 107 0 140 -52 78 -194 71
-235 -12 -8 -17 -17 -32 -20 -32 -3 0 -14 15 -24 34 -10 19 -32 40 -49 47 -38
16 -193 21 -178 6 14 -14 14 -224 1 -232 -20 -12 -38 16 -81 123 -44 112 -53
129 -62 115z m583 -23 c43 -23 61 -138 28 -177 -64 -77 -178 -25 -178 81 0 90
73 137 150 96z m-290 -6 c60 -36 78 -126 34 -175 -22 -25 -76 -39 -111 -30
l-28 7 -1 107 -1 107 39 0 c22 0 52 -7 68 -16z m-281 -46 c25 -66 24 -68 -8
-68 -35 0 -35 -1 -19 51 13 45 16 47 27 17z"/>
<path d="M2082 940 c-35 -33 -28 -59 33 -115 57 -53 66 -74 40 -95 -31 -26
-85 -15 -85 18 -1 16 -2 15 -11 -1 -28 -47 77 -68 119 -24 36 38 28 65 -33
122 -30 28 -55 58 -55 68 0 38 78 42 93 5 3 -7 6 -1 6 15 1 25 -2 27 -42 27
-30 0 -50 -6 -65 -20z"/>
</g>
</svg>
