<svg width="32" height="32" viewBox="0 0 32 32" fill="none" xmlns="http://www.w3.org/2000/svg">
<path d="M16 32C7.16333 32 0 24.8367 0 16C0 7.16333 7.16333 0 16 0C24.8367 0 32 7.16333 32 16C32 24.8367 24.8367 32 16 32Z" fill="#3FC250"/>
<path fill-rule="evenodd" clip-rule="evenodd" d="M24.7733 15.5567C24.6566 10.9333 20.8466 7.22333 16.16 7.22333C11.53 7.22333 7.7533 10.85 7.54996 15.4C7.54663 15.5233 7.5433 15.65 7.5433 15.7733C7.5433 17.39 7.9933 18.9 8.77663 20.19L7.2233 24.7767L11.9966 23.26C13.23 23.9367 14.65 24.3267 16.16 24.3267C20.92 24.3267 24.7766 20.5 24.7766 15.7733C24.7766 15.7 24.7766 15.63 24.7733 15.5567ZM16.16 22.9633C14.6866 22.9633 13.32 22.5267 12.1733 21.7733L9.38996 22.66L10.2933 19.99C9.42663 18.8033 8.9133 17.3467 8.9133 15.7733C8.9133 15.54 8.92663 15.3067 8.94996 15.0767C9.30663 11.4367 12.4033 8.58666 16.16 8.58666C19.9633 8.58666 23.09 11.51 23.38 15.2133C23.3966 15.4 23.4033 15.5833 23.4033 15.7733C23.4033 19.74 20.1533 22.9633 16.16 22.9633Z" fill="white"/>
<path fill-rule="evenodd" clip-rule="evenodd" d="M20.11 17.5C19.8967 17.3967 18.86 16.8867 18.6667 16.8167C18.4733 16.7433 18.3333 16.7133 18.19 16.92C18.05 17.13 17.64 17.6033 17.52 17.74C17.3967 17.88 17.2733 17.8967 17.06 17.7933C16.85 17.69 16.17 17.47 15.36 16.7533C14.7333 16.2 14.3067 15.5133 14.1867 15.3067C14.0667 15.0967 14.1733 14.9833 14.28 14.88C14.3767 14.7833 14.49 14.6333 14.6 14.5133C14.63 14.4767 14.6533 14.4433 14.6767 14.4133C14.7267 14.3367 14.76 14.2633 14.81 14.1633C14.8833 14.0233 14.8467 13.9 14.7933 13.7967C14.74 13.6933 14.3167 12.66 14.14 12.24C13.9667 11.82 13.79 11.8933 13.6633 11.8933C13.5433 11.8933 13.4 11.8733 13.26 11.8733C13.12 11.8733 12.89 11.9267 12.6967 12.1367C12.5033 12.3467 11.96 12.8533 11.96 13.8867C11.96 14.13 12.0033 14.37 12.07 14.6C12.2833 15.3367 12.7433 15.9467 12.8233 16.0533C12.9267 16.19 14.2833 18.3767 16.43 19.22C18.58 20.0567 18.58 19.7767 18.9667 19.74C19.3533 19.7067 20.2167 19.2367 20.39 18.7433C20.5667 18.2567 20.5667 17.8367 20.5167 17.7467C20.46 17.6567 20.32 17.6067 20.11 17.5Z" fill="white"/>
</svg>
